<svg width="80" height="25" viewBox="0 0 80 25" fill="none" xmlns="http://www.w3.org/2000/svg">
<g id="Spotify_logo_with_text 1" clip-path="url(#clip0_5_49)">
<path id="Vector" d="M11.9994 0.827477C5.39243 0.827477 0.0361481 6.18362 0.0361481 12.7906C0.0361481 19.3979 5.39243 24.7536 11.9994 24.7536C18.6071 24.7536 23.9629 19.3979 23.9629 12.7906C23.9629 6.18405 18.6071 0.828048 11.9993 0.828048L11.9994 0.827477ZM17.4857 18.0818C17.2714 18.4332 16.8114 18.5446 16.46 18.3289C13.6511 16.6132 10.1151 16.2246 5.95086 17.176C5.54958 17.2675 5.14958 17.016 5.05815 16.6146C4.96629 16.2132 5.21672 15.8132 5.61901 15.7218C10.1761 14.6806 14.0851 15.1289 17.2386 17.056C17.59 17.2718 17.7014 17.7303 17.4857 18.0818ZM18.95 14.8243C18.68 15.2632 18.1057 15.4018 17.6671 15.1318C14.4514 13.1552 9.54958 12.5828 5.74601 13.7373C5.25272 13.8863 4.73172 13.6083 4.58201 13.1159C4.43343 12.6226 4.71158 12.1026 5.20401 11.9526C9.54872 10.6343 14.95 11.2729 18.6429 13.5422C19.0814 13.8122 19.22 14.3863 18.95 14.8243ZM19.0757 11.4323C15.22 9.14219 8.85858 8.93162 5.17729 10.0489C4.58615 10.2282 3.96101 9.89448 3.78186 9.30333C3.60272 8.71191 3.93615 8.08719 4.52772 7.90748C8.75358 6.62462 15.7786 6.87248 20.2177 9.50776C20.7506 9.82333 20.9249 10.51 20.6091 11.041C20.2949 11.5728 19.6063 11.748 19.0763 11.4323H19.0757ZM32.5843 11.8712C30.5186 11.3786 30.1514 11.0329 30.1514 10.3065C30.1514 9.62019 30.7971 9.15833 31.7586 9.15833C32.69 9.15833 33.6129 9.50905 34.5814 10.231C34.61 10.2529 34.6471 10.2616 34.6829 10.2559C34.72 10.2505 34.7514 10.2306 34.7729 10.2008L35.7814 8.77905C35.8229 8.72048 35.8114 8.63976 35.7557 8.59505C34.6029 7.67033 33.3057 7.22076 31.7886 7.22076C29.5586 7.22076 28 8.55919 28 10.4742C28 12.5278 29.3443 13.2549 31.6671 13.8162C33.6429 14.2715 33.9771 14.6529 33.9771 15.3346C33.9771 16.0903 33.3029 16.5603 32.2171 16.5603C31.0114 16.5603 30.0271 16.1532 28.9271 15.2018C28.9 15.1775 28.8629 15.1675 28.8286 15.1689C28.7914 15.1718 28.7586 15.1889 28.7357 15.216L27.6043 16.5618C27.5571 16.6189 27.5629 16.7018 27.6171 16.7503C28.8972 17.8932 30.4714 18.496 32.1714 18.496C34.5743 18.496 36.1271 17.1832 36.1271 15.1503C36.1314 13.435 35.1043 12.485 32.5886 11.873L32.5843 11.8712ZM41.5643 9.83405C40.5229 9.83405 39.6686 10.2443 38.9629 11.085V10.1388C38.9629 10.064 38.9029 10.0032 38.8286 10.0032H36.9786C36.9043 10.0032 36.8443 10.064 36.8443 10.1388V20.6532C36.8443 20.7275 36.9043 20.7889 36.9786 20.7889H38.8286C38.9029 20.7889 38.9629 20.7275 38.9629 20.6532V17.3346C39.6686 18.1246 40.5229 18.5118 41.5643 18.5118C43.5 18.5118 45.46 17.0218 45.46 14.1733C45.4629 11.3243 43.5029 9.8339 41.5657 9.8339L41.5643 9.83405ZM43.3086 14.1733C43.3086 15.6232 42.4157 16.636 41.1357 16.636C39.8714 16.636 38.9172 15.5775 38.9172 14.1733C38.9172 12.769 39.8714 11.7108 41.1357 11.7108C42.3943 11.7106 43.3086 12.7462 43.3086 14.1733ZM50.4814 9.83405C47.9886 9.83405 46.0357 11.7535 46.0357 14.2043C46.0357 16.6289 47.9757 18.5275 50.4514 18.5275C52.9529 18.5275 54.9114 16.6146 54.9114 14.1733C54.9114 11.7403 52.9657 9.83433 50.4814 9.83433V9.83405ZM50.4814 16.6503C49.1557 16.6503 48.1557 15.5846 48.1557 14.1726C48.1557 12.7542 49.1214 11.7249 50.4514 11.7249C51.7857 11.7249 52.7914 12.7902 52.7914 14.2036C52.7914 15.6218 51.82 16.6503 50.4814 16.6503ZM60.2343 10.0032H58.1986V7.92233C58.1986 7.84776 58.1386 7.7869 58.0643 7.7869H56.2143C56.14 7.7869 56.0786 7.84776 56.0786 7.92233V10.0032H55.19C55.1157 10.0032 55.0557 10.064 55.0557 10.1388V11.7283C55.0557 11.8029 55.1157 11.8639 55.19 11.8639H56.0786V15.9775C56.0786 17.6389 56.9057 18.4818 58.5386 18.4818C59.2014 18.4818 59.7514 18.3446 60.27 18.0503C60.3129 18.0275 60.3386 17.9818 60.3386 17.9332V16.4189C60.3386 16.3732 60.3143 16.3289 60.2743 16.3046C60.2343 16.2789 60.1843 16.2775 60.1429 16.2989C59.7872 16.4775 59.4429 16.5603 59.0572 16.5603C58.4643 16.5603 58.1986 16.2903 58.1986 15.6875V11.8646H60.2343C60.3086 11.8646 60.3686 11.8038 60.3686 11.729V10.1396C60.3714 10.0649 60.3114 10.004 60.2357 10.004L60.2343 10.0032ZM67.3257 10.0113V9.75576C67.3257 9.0039 67.6143 8.66862 68.26 8.66862C68.6457 8.66862 68.9557 8.74519 69.3029 8.8609C69.3457 8.87433 69.39 8.86762 69.4243 8.84205C69.46 8.81648 69.48 8.77548 69.48 8.73205V7.17348C69.48 7.1139 69.4429 7.06119 69.3843 7.04362C69.0186 6.93462 68.55 6.82276 67.8472 6.82276C66.14 6.82276 65.2357 7.78476 65.2357 9.60376V9.99519H64.3472C64.2729 9.99519 64.2114 10.056 64.2114 10.1306V11.7283C64.2114 11.8029 64.2729 11.8639 64.3472 11.8639H65.2357V18.2075C65.2357 18.2832 65.2971 18.3432 65.3714 18.3432H67.22C67.2957 18.3432 67.3557 18.2832 67.3557 18.2075V11.8643H69.0829L71.7286 18.2075C71.4286 18.8732 71.1329 19.006 70.73 19.006C70.4043 19.006 70.06 18.9089 69.71 18.716C69.6772 18.6989 69.6372 18.696 69.6029 18.706C69.5672 18.7189 69.5372 18.7446 69.5229 18.7789L68.8957 20.1546C68.8657 20.2203 68.8914 20.296 68.9543 20.3303C69.6086 20.6846 70.1986 20.836 70.9286 20.836C72.2943 20.836 73.05 20.1989 73.7143 18.4875L76.9229 10.1965C76.94 10.1548 76.9343 10.1076 76.9086 10.0706C76.8843 10.0339 76.8429 10.0118 76.7986 10.0118H74.8729C74.8143 10.0118 74.7629 10.0485 74.7443 10.1026L72.7714 15.736L70.6114 10.0989C70.5914 10.0465 70.5414 10.0118 70.4857 10.0118H67.3257V10.0113ZM63.2143 10.0032H61.3643C61.29 10.0032 61.2286 10.064 61.2286 10.1388V18.2075C61.2286 18.2832 61.29 18.3432 61.3643 18.3432H63.2143C63.2886 18.3432 63.35 18.2832 63.35 18.2075V10.1393C63.35 10.0646 63.29 10.0038 63.2143 10.0038V10.0032ZM62.3 6.32905C61.5672 6.32905 60.9729 6.92219 60.9729 7.6549C60.9729 8.38805 61.5672 8.9819 62.3 8.9819C63.0329 8.9819 63.6257 8.38805 63.6257 7.6549C63.6257 6.92233 63.0314 6.32905 62.3 6.32905ZM78.5029 12.5976C77.7714 12.5976 77.2014 12.0098 77.2014 11.2959C77.2014 10.582 77.7786 9.98748 78.51 9.98748C79.2414 9.98748 79.8114 10.5752 79.8114 11.2885C79.8114 12.0023 79.2343 12.5976 78.5029 12.5976ZM78.51 10.1169C77.8429 10.1169 77.3386 10.6469 77.3386 11.2959C77.3386 11.9446 77.84 12.4675 78.5029 12.4675C79.17 12.4675 79.6743 11.9379 79.6743 11.2885C79.6743 10.6398 79.1729 10.1169 78.51 10.1169ZM78.7986 11.4223L79.1672 11.9378H78.8557L78.5243 11.4649H78.24V11.9378H77.98V10.5715H78.5886C78.9072 10.5715 79.1157 10.7339 79.1157 11.0073C79.1171 11.2313 78.9872 11.3682 78.8 11.4223H78.7986ZM78.5786 10.8059H78.24V11.238H78.5786C78.7472 11.238 78.8486 11.1553 78.8486 11.0218C78.8486 10.8812 78.7472 10.8059 78.5786 10.8059Z" fill="white"/>
</g>
<defs>
<clipPath id="clip0_5_49">
<rect width="79.8571" height="24" fill="white" transform="translate(0 0.787903)"/>
</clipPath>
</defs>
</svg>
