<?xml version="1.0" standalone="no"?>
<!DOCTYPE svg PUBLIC "-//W3C//DTD SVG 20010904//EN"
 "http://www.w3.org/TR/2001/REC-SVG-20010904/DTD/svg10.dtd">
<svg version="1.0" xmlns="http://www.w3.org/2000/svg"
 width="186.000000pt" height="186.000000pt" viewBox="0 0 186.000000 186.000000"
 preserveAspectRatio="xMidYMid meet">
<metadata>
Created by potrace 1.14, written by Peter Selinger 2001-2017
</metadata>
<g transform="translate(0.000000,186.000000) scale(0.100000,-0.100000)"
fill="#000000" stroke="none">
<path d="M0 930 l0 -930 930 0 930 0 0 930 0 930 -930 0 -930 0 0 -930z m835
379 c27 -8 58 -30 98 -70 32 -32 61 -59 65 -59 4 1 25 19 47 40 50 50 92 64
158 56 57 -8 90 -23 137 -62 56 -47 71 -100 80 -273 4 -90 4 -168 -2 -188 -16
-57 -69 -94 -108 -73 -39 21 -49 52 -59 180 -6 69 -16 145 -23 170 -12 38 -18
46 -41 48 -37 4 -51 -8 -68 -60 -7 -24 -30 -77 -50 -119 -43 -87 -81 -122
-130 -117 -49 5 -68 39 -75 133 -5 81 -37 194 -58 207 -28 19 -69 7 -106 -30
-38 -38 -60 -91 -60 -148 0 -56 -39 -223 -65 -279 -31 -69 -60 -86 -110 -62
-60 29 -68 52 -62 185 7 183 64 326 176 445 71 75 161 102 256 76z"/>
</g>
</svg>
